<svg xmlns="http://www.w3.org/2000/svg" width="512" height="513" viewBox="0 0 512 513">
  <g fill="none" fill-rule="evenodd" transform="translate(0 .638)">
    <circle cx="256" cy="256" r="179" fill="#e8e8e8"/>
    <path fill="#6f3895" fill-rule="nonzero" d="M256,0 C188.104577,-5.65795263e-06 122.989972,26.9713437 74.9806578,74.9806578 C26.9713437,122.989972 -5.65795257e-06,188.104577 0,256 C-5.65795271e-06,323.895423 26.9713437,389.010028 74.9806578,437.019342 C122.989972,485.028656 188.104577,512.000006 256,512 C323.895423,512.000006 389.010028,485.028656 437.019342,437.019342 C485.028656,389.010028 512.000006,323.895423 512,256 C512.000006,188.104577 485.028656,122.989972 437.019342,74.9806578 C389.010028,26.9713437 323.895423,-5.65795263e-06 256,0 Z M255.916672,85.2916672 C257.360066,85.2690827 258.750976,85.8325103 259.771734,86.8532692 C260.792492,87.874028 261.355919,89.2649391 261.333333,90.7083328 L261.333333,99.7916672 L388.958336,173.062496 L396.5,168.708331 C397.223236,168.281723 398.036973,168.031893 398.874997,167.979168 C401.364808,167.811439 403.638123,169.39242 404.347393,171.784955 C405.056663,174.17749 404.012285,176.742005 401.833333,177.958336 L394.666667,182.104171 L394.645835,329.854165 L401.833333,334 C403.564374,334.910824 404.658002,336.696088 404.683066,338.65197 C404.70813,340.607852 403.660609,342.420554 401.953476,343.375437 C400.246344,344.330321 398.15349,344.274186 396.5,343.229163 L388.916672,338.854165 L261.333333,412.125003 L261.333333,421.250005 C261.360527,423.173391 260.349988,424.962425 258.688671,425.932054 C257.027355,426.901683 254.972645,426.901683 253.311329,425.932054 C251.650012,424.962425 250.639473,423.173391 250.666667,421.250005 L250.666667,412.125003 L123.041664,338.854165 L115.5,343.208331 C113.84651,344.253354 111.753656,344.309489 110.046524,343.354605 C108.339391,342.399722 107.29187,340.58702 107.316934,338.631138 C107.341998,336.675256 108.435626,334.889992 110.166667,333.979168 L117.333333,329.833333 L117.312501,182.104171 L110.166667,177.979168 C108.101367,176.824492 107.043638,174.447197 107.568656,172.140013 C108.093674,169.832829 110.075928,168.147306 112.437504,168 C113.51059,167.935671 114.578072,168.197094 115.5,168.749995 L123.020832,173.083328 L250.666667,99.8125003 L250.666667,90.7291669 C250.644534,89.314669 251.185231,87.9493162 252.169805,86.9334871 C253.154379,85.917658 254.502173,85.3345691 255.916672,85.3125003 L255.916672,85.2916672 Z M250.666667,112.104171 L133.708331,179.250005 L152.145835,189.895829 L250.666667,133.291669 L250.666667,112.104171 Z M261.333333,112.104171 L261.333333,131.187499 L361.645835,188.854165 L378.291669,179.229163 L261.333333,112.104171 Z M261.333333,143.458336 L261.333333,172.937504 L325.312501,209.812501 L350.979168,195 L261.333333,143.458336 Z M250.666667,145.541664 L162.833333,196.062496 L186.687499,209.833333 L250.666667,172.937504 L250.666667,145.541664 Z M250.666667,185.250005 L197.333333,215.979168 L204.333333,220.020832 L221.062496,229.666667 L250.666667,212.479168 L250.666667,193.270837 L250.666667,185.250005 Z M261.333333,185.250005 L261.333333,193.270837 L261.333333,212.479168 L290.916672,229.666667 L307.666667,220 L314.625003,215.979168 L261.333333,185.250005 Z M128.062496,188.270837 L128.020832,323.625003 L149.333333,311.333333 L149.312501,200.541664 L128.062496,188.270837 Z M383.979168,188.291669 L366.312501,198.479168 L366.312501,313.208331 C366.307872,313.298772 366.300926,313.38908 366.291669,313.479168 L383.979168,323.687499 L383.979168,188.291669 Z M355.625003,204.583339 L330.666667,219 L330.666667,292.874997 L355.625003,307.291669 L355.625003,204.583339 Z M160.041664,206.729163 L160.020832,305.166667 L181.333333,292.854165 L181.333333,219.020832 L160.041664,206.729163 Z M250.666667,224.791669 L231.729163,235.791669 L250.666667,246.729163 L250.666667,224.791669 Z M261.333333,224.791669 L261.333333,246.708331 L280.250005,235.791669 L261.333333,224.791669 Z M192,225.145835 L192,286.687499 L199,282.645835 L213.333333,274.374997 L213.333333,237.458336 L199,229.187499 L192,225.145835 Z M320,225.145835 L313,229.187499 L298.666667,237.458336 L298.666667,274.416661 L313,282.687499 L320.020832,286.729163 L320,225.145835 Z M223.958336,243.562496 L223.958336,268.229163 L245.312501,255.895829 L223.958336,243.562496 Z M288.041664,243.562496 L266.645835,255.916672 L288.041664,268.270837 L288.041664,243.562496 Z M250.666667,265.104171 L226.562496,279.020832 L250.666667,293.041664 L250.666667,265.104171 Z M261.333333,265.104171 L261.333333,293.020832 L285.416661,279.020832 L261.333333,265.104171 Z M215.895829,285.166667 L215.895829,285.208331 L204.333333,291.874997 L197.354165,295.895829 L250.666667,326.645835 L250.666667,318.625003 L250.666667,305.416661 L215.979168,285.270837 C215.950959,285.236465 215.923177,285.201738 215.895829,285.166667 Z M296.104171,285.166667 L296.104171,285.208331 C296.076392,285.20855 296.048611,285.20855 296.020832,285.208331 L261.333333,305.374997 L261.333333,318.562496 L261.333333,326.583339 L314.645835,295.854165 L307.666667,291.833333 L296.104171,285.166667 Z M186.687499,302 L166.437504,313.687499 L250.666667,362.125003 L250.666667,338.874997 L186.687499,302 Z M325.312501,302 L261.333333,338.854165 L261.333333,364.166667 L347.354165,314.708331 L325.312501,302 Z M155.749995,319.833333 L133.687499,332.562496 L250.666667,399.729163 L250.666667,374.374997 L155.749995,319.833333 Z M358.041664,320.874997 L261.333333,376.458336 L261.333333,399.687499 L378.250005,332.562496 L358.041664,320.874997 Z"/>
  </g>
</svg>
